<?xml version="1.0" encoding="UTF-8" standalone="no"?>
<svg
   xmlns:dc="http://purl.org/dc/elements/1.1/"
   xmlns:cc="http://creativecommons.org/ns#"
   xmlns:rdf="http://www.w3.org/1999/02/22-rdf-syntax-ns#"
   xmlns:svg="http://www.w3.org/2000/svg"
   xmlns="http://www.w3.org/2000/svg"
   xmlns:sodipodi="http://sodipodi.sourceforge.net/DTD/sodipodi-0.dtd"
   xmlns:inkscape="http://www.inkscape.org/namespaces/inkscape"
   fill="#ffffff"
   version="1.1"
   x="0px"
   y="0px"
   viewBox="0 0 100 76.926102"
   enable-background="new 0 0 100 100"
   xml:space="preserve"
   id="svg22"
   sodipodi:docname="chance.svg"
   width="100"
   height="76.926102"
   inkscape:version="1.0.1 (3bc2e813f5, 2020-09-07)"><metadata
     id="metadata28"><rdf:RDF><cc:Work
         rdf:about=""><dc:format>image/svg+xml</dc:format><dc:type
           rdf:resource="http://purl.org/dc/dcmitype/StillImage" /><dc:title></dc:title></cc:Work></rdf:RDF></metadata><defs
     id="defs26" /><sodipodi:namedview
     pagecolor="#ffffff"
     bordercolor="#666666"
     borderopacity="1"
     objecttolerance="10"
     gridtolerance="10"
     guidetolerance="10"
     inkscape:pageopacity="0"
     inkscape:pageshadow="2"
     inkscape:window-width="1118"
     inkscape:window-height="862"
     id="namedview24"
     showgrid="false"
     inkscape:pagecheckerboard="true"
     borderlayer="false"
     fit-margin-top="0"
     fit-margin-left="0"
     fit-margin-right="0"
     fit-margin-bottom="0"
     inkscape:zoom="8.58"
     inkscape:cx="50"
     inkscape:cy="51.663696"
     inkscape:window-x="39"
     inkscape:window-y="247"
     inkscape:window-maximized="0"
     inkscape:current-layer="svg22" /><path
     fill-rule="evenodd"
     clip-rule="evenodd"
     d="M 99.391814,38.861343 83.792592,73.006776 c -1.538713,3.36799 -5.515401,4.849439 -8.88233,3.311786 L 40.762708,60.719341 C 37.395779,59.180628 35.912209,55.202879 37.450922,51.83595 L 53.051204,17.689456 c 1.537653,-3.367989 5.51434,-4.850498 8.88233,-3.311785 l 34.147554,15.599221 c 3.36799,1.537653 4.849442,5.516462 3.310726,8.884451 z M 64.77448,22.676753 c -3.198318,-1.4613 -6.975641,-0.05302 -8.438002,3.146356 -1.4613,3.199378 -0.05302,6.977762 3.147416,8.439062 3.199378,1.4613 6.976702,0.05408 8.439062,-3.146356 1.45918,-3.199378 0.0509,-6.977761 -3.148476,-8.439062 z m 6.293771,16.879185 c -3.199378,-1.4613 -6.977761,-0.05408 -8.439062,3.146355 -1.46236,3.199378 -0.05302,6.977762 3.145295,8.440123 3.200439,1.459179 6.978823,0.05196 8.440123,-3.148476 1.4613,-3.198318 0.05302,-6.977762 -3.146356,-8.438002 z m 6.292711,16.877064 c -3.199378,-1.46024 -6.977761,-0.05196 -8.438001,3.147416 -1.462361,3.199378 -0.05408,6.977761 3.146355,8.439062 3.198318,1.4613 6.976702,0.05302 8.438002,-3.146356 1.4613,-3.200438 0.05196,-6.977762 -3.146356,-8.440122 z M 32.297135,52.915489 c -0.986219,2.160136 -0.875932,4.520698 0.04666,6.518586 l -6.938525,3.236494 c -3.355264,1.564164 -7.344677,0.111347 -8.907781,-3.242856 L 0.62997332,25.404231 C -0.93525106,22.048967 0.51650516,18.059554 3.8738901,16.49539 L 37.897372,0.62999493 c 3.355264,-1.56522437 7.342556,-0.11346816 8.907781,3.24285647 l 4.025468,8.6341856 c -0.110287,0.196183 -0.243903,0.372218 -0.338283,0.580066 z M 20.496446,22.797645 c -1.486751,-3.188774 -5.27574,-4.567359 -8.463453,-3.080608 -3.1877127,1.485691 -4.5662979,5.274679 -3.0795468,8.463452 1.4846308,3.187714 5.2746788,4.566299 8.4623918,3.080608 3.186653,-1.486751 4.566298,-5.275739 3.080608,-8.463452 z m 2.302237,20.007512 c -3.188774,1.486751 -4.567359,5.274679 -3.079547,8.462392 1.48463,3.186653 5.274679,4.566298 8.462392,3.079547 3.186652,-1.48569 4.566298,-5.2768 3.080607,-8.462392 -1.486751,-3.187713 -5.2768,-4.566298 -8.463452,-3.079547 z M 43.584566,12.031955 c -1.486751,-3.1877134 -5.2768,-4.567359 -8.463453,-3.080608 -3.187713,1.485691 -4.567358,5.27574 -3.081668,8.463453 1.486751,3.187713 5.2768,4.566298 8.464513,3.079547 3.186653,-1.486751 4.566298,-5.274679 3.080608,-8.462392 z"
     id="path20"
     style="stroke-width:1.06045" /></svg>
